<svg xmlns="http://www.w3.org/2000/svg" xmlns:xlink="http://www.w3.org/1999/xlink" height="480" width="640"><g fill="none" fill-rule="evenodd"><path fill="#82AFFF" d="M0 0h640v480H0z"/><g fill="#F5F5F5" fill-rule="nonzero"><path d="M318.366 336.536c65.683 0 119.118-53.487 119.118-119.224S384.047 98.088 318.366 98.088c-65.682 0-119.118 53.487-119.118 119.224s53.435 119.224 119.118 119.224zm13.59-225.978l10.237-3.776a112.356 112.356 0 0 1 39.708 17.058c-1.016-.102-3.703-.378-4.167-.533-.574-.19-1.46 3.652-1.46 3.652l4.699 1.87 1.28-4.722c4.88 3.36 9.438 7.139 13.725 11.206l-6.907 6.913h-1.22l-.994-3.901-3.778-6.798-13.347-4.816-9.232 4.472 5.239 11.35c-12.908-8.22-28.053-13.159-44.319-13.716v-15.822l9.406 2.973-3.91-6.9-5.496 2.355v-7.064c4.083.11 8.101.443 12.064.98l-4.62 1.54 3.091 3.679zm61.812 87.265l2.248-.953.566-5.539c2.41 7.25 3.8 14.943 4.093 22.923H379.96l.763-3.312 5.855-.51 4.846-8.259-.138-1.549-4.963 6.37-3.03.744-1.933-2.273 2.273-3.867-4.946-3.65-4.442 3.899c-1.197-4.322-2.827-8.463-4.934-12.32l2.409-.876 1.932-1.154-.016-2.275 1.24-1.542-.718-.44c-.53.251-3.293 1.055-3.293 1.055l-.958 3.113-1.375.837a58.275 58.275 0 0 0-7.094-9.723l11.423-11.433.098.16 2.782-1.673-.431-.941 3.395-3.398a82.518 82.518 0 0 1 17.426 28.87l-2.844-4.23-1.465.548 1.947 11.398zm-15.06 75.562l-6.179-6.185-2.332-6.187-1.2 2.653-2.39-2.392 2.45-7.519-1.586-5.455-.113.015c1.68-2.649 3.193-5.41 4.431-8.325l.03-.003c.382 0 1.78-1.783 1.78-1.783l3.437.383 8.882-3.514-3.411-3.237-2.008-1.795-1.557-3.171-2.784-4.85c.044-.545.056-1.097.084-1.646h24.435c-.754 20.442-8.94 38.974-21.969 53.01zm-118.567-3.912l3.06-5.35-6.585-23.032-5.191-12.824 4.708-2.04 1.273-3.821 3.18-.092c1.11 12.942 6.49 24.654 14.707 33.784l-13.49 13.502-1.662-.127zm7.35-56.46l-.066 1.244h-.83c.028-.47.033-.948.072-1.415l.824.172zm78.418 48.275l-1.044-.568-13.325 5.157-6.906-2.66-3.214.888v-4.395l3.325-1.004 2.016.486 4.243 1.661-2.558-4.682 5.483 4.6 2.63.6-.8-3.509 1.783-5.8 6.212-3.793.54 3.492-7.579 4.123 1.454 2.904 7.882-1.593.124 3.935c-.088.051-.18.101-.266.158zm-31.404-22.967l-.237-.51-1.43.082a21.183 21.183 0 0 1-5.18-2.17l5.317-.645 2.336-6.275v9.598c-.266-.036-.544-.032-.806-.08zm-22.33-13.09l-5.194-.802 2.65-4.06h1.554c.187 1.675.515 3.29.99 4.861zm29.244-21.154l1.432.434 1.8 2.186-3.232 3.236v-5.856zm9.634 38.859l-2.48 2.904-4.132 2.058-1.386-2.43-.833 4.83-.8.314v-6.095c.577-.065 1.171-.076 1.74-.176l1.978 2.482 1.641-2.046-.127-1.367c.911-.291 1.842-.533 2.71-.915l1.689.44zm-1.86-32.138l-.065 3.308-.12.15h-3.271l3.456-3.458zm1.962 11.387l3.954-.126 2.156 1.798-.718 1.295-3.018-1.727-1.653 1.294.83 2.48-.034.109-6.932-6.939h4.618l.797 1.816zm-2.615 9.634l-3.777-.407-2.669 6.922c-.219.038-.452.037-.672.067v-13.71l7.118 7.128zm-19.61-17.564l-.266-1.114-2.652 1.114h-1.173l.388-1.612 1.713-1.66-1.36-.31-1.412 2.011-1.469.674.173.9h-1.542l.927-3.612 2.715-2.41 6.018 6.023h-2.06v-.004zm-11.333 6.116l.626.738.423-.738h2.184l-2.841 3.076a21.034 21.034 0 0 1-.694-3.076h.302zm3.38 9.306l3.948-6.826-1.032-.924 1.74-.899.218-.659h2.78l-.638.343-.265.916 2.152-.146-1.602 1.603-1.628.344-.338 1.625-5.011 5.015c-.103-.138-.224-.255-.324-.392zm14.334-32.817l-1.14-.176.883 3.668.259.202v9.379l-5.133-5.138 3.603-1.948-3.255-5.397c1.515-.6 3.123-.987 4.785-1.228l-.002.638zm-48.21 23.51l-.062 1.163-.256 1.552c-.098-.894-.132-1.808-.186-2.716l.503.002zm2.988 7.26l3.8 3.823 3.117-2.173 7.344 6.167 7.899 1.39 2.209-6.219a27.526 27.526 0 0 0 2.529 3.775l-6.786 6.792 1.091-2.784-4.04-.657 1.294 4.748.192.16-9.124 9.13c-5.944-6.69-10.233-14.883-12.103-23.974l2.578-.178zm31.213 11.083a27.164 27.164 0 0 0 14.01 5.804v7.07l-.07.167.07-.022v5.288l-1.78.358-1.03 6.636 2.81-.326v2.105l-4.45 1.23-1.482 1.43c-9.67-1.7-18.405-6.074-25.45-12.348l17.372-17.392zm51.523 25.224l4.482.952 4.41.136 2.423 2.426-7.406-.27-4.772-2.597c.294-.21.575-.432.863-.647zm4.295-12.158l-1.337-1.338 2.72-.208c-.437.534-.924 1.028-1.383 1.546zm7.005-58.982c-2.078.03-4.093.059-4.273.059-.383 0-3.376 2.56-3.376 2.56l-2.288 2.965-.689-3.618 1.621-3.695-1.249-1.145-5.6 3.567-1.187-.6 4.373-4.378.963.317 2.788-.656-1.417-1.995 3.327-3.333c2.696 3.034 5.073 6.352 7.007 9.952zm-16.38-9.212l-.268-.857-1.814.286-1.126 2.183-4.981.49c.364.73 1.915 3.762 2.055 4.034l-6.18 6.186a27.374 27.374 0 0 0-4.212-2.77l.765-.412-.908-3.071-.619-1.134-2.756 3.018c-1.996-.728-4.098-1.189-6.278-1.435v-24.609c12.014.704 22.922 5.494 31.382 13.026l-5.06 5.065zm-32.434 6.522a27.2 27.2 0 0 0-5.694 1.252l.914-2.124-4.764 3.748.008.015c-1.593.83-3.08 1.799-4.473 2.915l-17.372-17.388c8.46-7.533 19.367-12.322 31.381-13.026v24.608zm-19.309 9.147l-8.212 1.438.287-3.123-6.807-2.352-10.886 2.278c2.241-5.412 5.393-10.336 9.225-14.65l16.393 16.409zm-26.361.274l3.419.715-4.098 1.135c.202-.63.452-1.233.679-1.85zm-9.154 14.727h-.53l.556-.514c-.01.171-.016.343-.026.514zm6.514 58.79l12.61-12.62a57.844 57.844 0 0 0 24.482 13.122l-4.343 4.19 9.349 12.364 6.212.344v9.256c-16.314-.6-31.428-5.912-44.001-14.694l2.019-1.312-6.328-10.65zm54.418 17.733l7.877.435.2 1.809 4.792 5.256c-4.18.823-8.49 1.26-12.87 1.421v-8.92zm50.038-16.007l2.933 2.936c-1.403 1.303-2.813 2.596-4.304 3.804l1.37-6.74zm2.931-117.854l-1.789 1.791-2.12-4.638-3.857-2.053s-3.59-3.171-5.46-5.124a82.802 82.802 0 0 1 13.226 10.024zm-14.057-10.532l2.699 9.45 6.304 5.494.246.402-12.462 12.472c-9.575-8.634-22.003-14.101-35.7-14.819v-24.456c14.18.523 27.428 4.625 38.913 11.457zm-45.02 13c-13.696.718-26.123 6.185-35.7 14.818l-17.27-17.286c14.026-13.042 32.544-21.235 52.97-21.99v24.457zm-40.02 19.14c-6.544 7.274-11.29 16.177-13.51 26.052l-5.368 9.678h-20.361c.753-20.445 8.94-38.98 21.968-53.016l17.272 17.286zM253.47 220.37l-5.802 12.48-8.206-3.056-1.54 5.467c-1.074-4.82-1.681-9.8-1.869-14.894h17.415l.002.003zm-6.116 61.904l.947.84-11.864 11.876a113.394 113.394 0 0 1-20.155-29.483l3.155 1.845 21.046 18.742 6.87-3.82zm5.525 4.902l2.873 2.549 9.318-1.772c14.085 10.672 31.408 17.21 50.241 17.86v24.456c-28.846-.777-54.987-12.388-74.558-30.954l12.126-12.14zm68.54 18.635c5.176-.177 10.26-.717 15.175-1.753l.569 3.768 14.558 10.745 16.392-9.103 4.706-9.93-.309-6.143 3.095-7.268-.754-.591c1.338-1.111 2.586-2.322 3.854-3.508l2.818 2.817.857 5.325 3.197-1.268 10.402 10.411c-19.57 18.567-45.712 30.177-74.557 30.955v-24.457h-.003zm65.617-24.092l-.584-6.96-.782.035c12.608-14.767 20.406-33.697 21.117-54.426h24.434c-.776 28.871-12.376 55.033-30.923 74.622l-13.262-13.271zm19.75-67.465c-.53-15.427-5-29.836-12.457-42.301l10.386 9.723 8.334-7.164-12.79-19.298-8.443-6.497.022-.622 8.457-8.464c18.548 19.588 30.147 45.752 30.924 74.622h-24.434v.001zm-91.475-85.441c-22.11.76-42.15 9.637-57.286 23.783l-17.272-17.286c19.571-18.566 45.713-30.176 74.558-30.954v24.457zm-61.606 28.106c-14.132 15.15-23 35.206-23.76 57.335H205.51c.777-28.87 12.377-55.033 30.924-74.621l17.271 17.286zm-23.76 63.45c.311 9.09 1.982 17.822 4.84 26.022l-.921 3.276-23.873-.526c-2.694-9.165-4.212-18.81-4.48-28.77l24.434-.001zM236.072 358.955l22.054-3.574c1.97-.32 2.79-2.703 1.423-4.16-5.304-5.673-15.847-17.421-21.95-27.42-8.4-13.758-23.19-25.099-23.19-25.099s2.828 37.836 31.334 50.828c0 0-28.253-7.134-46.324-11.973-18.072-4.84-23.018-10.167-23.018-10.167s14.112 36.15 59.671 31.565z"/><path d="M214.183 316.667c-.764-9.427-7.648-33.527-20.623-53.448 0 0 .016 48.416 17.191 64.815 0 0-24.312-23.342-38.82-34.042-13.584-10.016-19.599-21.4-19.599-21.4s3.65 30.595 23.417 45.855c13.363 10.318 43.015 17.579 43.015 17.579s-3.817-9.935-4.581-19.359z"/><path d="M167.606 280.49l14.853 12.858c1.55 1.341 3.963.283 3.995-1.767.08-5.171.396-13.02 1.514-17.97 1.782-7.897 3.985-33.54-5.007-52.18 0 0-10.87 33.405-2.374 61.225 0 0-13.344-21.237-26.98-37.322-7.127-8.407-9.95-18.32-9.95-18.32s-.232 33.352 23.949 53.476z"/><path d="M163.529 247.584c1.164 1.571 3.58 1.239 4.245-.599 1.953-5.392 5.741-15.089 10.775-24.322 9.163-16.813 4.935-36.602 4.935-36.602s-14.71 25.237-18.974 53.282c-.278-1.25-.582-2.587-.946-4.114-4.038-16.987-19.74-59.359-19.74-59.359s-5.524 23.27 1.379 41.698c3.547 9.457 13.459 23.442 18.326 30.016z"/><path d="M160.5 210.381c.442 1.691 2.808 1.734 3.311.059 1.406-4.67 4.329-11.109 10.41-17.331 11.455-11.717 20.14-27.987 24.578-42.525 0 0-24.438 19.625-32.144 32.857 0 0 .762-18.197-1.852-31.348-2.228-11.21 2.506-22.008 2.506-22.008s-15.486 14.876-13.196 42.134c1.442 17.152 4.395 30.57 6.386 38.162z"/><path d="M175.976 163.658c4.635-4.253 12.754-11.499 20.582-15.894 10.393-5.836 18.612-24.662 20.425-28.85 0 0-28.96 23.72-36.843 31.333 0 0 4.774-21.208 7.828-30.379 3.054-9.171 2.672-12.228 5.345-16.05 0 0-13.935 12.229-17.754 21.972-3.138 8.009-2.537 26.212-2.964 36.262-.079 1.821 2.04 2.836 3.38 1.606z"/><path d="M205.274 121.016C213.42 114.392 226.4 95.03 226.4 95.03c-3.215 1.839-16.29 6.369-27.233 17.578-10.945 11.21-13.235 26.493-13.235 26.493s11.197-11.462 19.342-18.086zM390.222 364.558c-23.926-4.713-44.414-8.152-68.432-1.899-1.182.308-2.288.662-3.426.997-1.14-.334-2.244-.688-3.426-.997-24.016-6.252-44.506-2.814-68.431 1.9-21.565 4.247-42.213.572-42.213.572s14.98 15.224 49.086 15.224c14.88 0 33.58-12.536 45.378-13.204 2.905-.165 5.775.012 8.618.33-25.336 10.344-37.031 26.032-37.261 26.335a3.052 3.052 0 0 0 .588 4.275c.551.423 1.2.626 1.843.626.922 0 1.834-.418 2.434-1.206.932-1.225 19.647-20.604 43.384-27.764 23.737 7.16 42.454 26.537 43.384 27.764a3.05 3.05 0 0 0 2.434 1.206c.644 0 1.292-.203 1.844-.626a3.053 3.053 0 0 0 .588-4.275c-.23-.303-11.925-15.991-37.261-26.335 2.842-.317 5.712-.494 8.617-.33 11.8.668 30.5 13.204 45.378 13.204 34.107 0 49.086-15.224 49.086-15.224s-20.647 3.675-42.212-.573zM390.985 349.53c28.508-12.992 31.334-50.828 31.334-50.828s-14.79 11.341-23.189 25.098c-6.104 9.999-16.648 21.748-21.95 27.42-1.364 1.458-.548 3.842 1.423 4.161l22.053 3.574c45.56 4.586 59.67-31.566 59.67-31.566s-4.948 5.328-23.018 10.167c-18.071 4.84-46.323 11.974-46.323 11.974z"/><path d="M464.797 293.994c-14.508 10.7-38.82 34.042-38.82 34.042 17.177-16.4 17.191-64.815 17.191-64.815-12.975 19.922-19.859 44.021-20.622 53.447-.764 9.426-4.582 19.362-4.582 19.362s29.651-7.26 43.015-17.578c19.767-15.262 23.417-45.855 23.417-45.855s-6.015 11.378-19.599 21.397z"/><path d="M456.145 282.657c8.494-27.82-2.374-61.225-2.374-61.225-8.992 18.641-6.79 44.285-5.007 52.181 1.117 4.949 1.433 12.797 1.514 17.97.032 2.05 2.445 3.108 3.994 1.766l14.854-12.857c24.18-20.126 23.947-53.474 23.947-53.474s-2.821 9.912-9.948 18.319c-13.636 16.082-26.98 37.32-26.98 37.32z"/><path d="M472.218 239.343c-4.264-28.045-18.974-53.282-18.974-53.282s-4.226 19.789 4.936 36.602c5.03 9.233 8.82 18.93 10.775 24.322.665 1.84 3.08 2.17 4.245.6 4.868-6.575 14.779-20.558 18.323-30.018 6.903-18.429 1.38-41.698 1.38-41.698s-15.704 42.371-19.741 59.358a284.096 284.096 0 0 0-.944 4.116z"/><path d="M471.924 152.095c-2.612 13.15-1.852 31.348-1.852 31.348-7.706-13.233-32.144-32.858-32.144-32.858 4.439 14.539 13.123 30.807 24.577 42.525 6.083 6.221 9.005 12.66 10.411 17.331.503 1.674 2.869 1.631 3.312-.059 1.992-7.592 4.944-21.011 6.385-38.162 2.29-27.259-13.196-42.134-13.196-42.134s4.735 10.8 2.507 22.009z"/><path d="M456.59 150.248c-7.884-7.614-36.843-31.333-36.843-31.333 1.814 4.189 10.032 23.016 20.425 28.85 7.828 4.394 15.947 11.64 20.582 15.895 1.34 1.23 3.46.215 3.382-1.605-.427-10.048.174-28.253-2.963-36.262-3.818-9.743-17.755-21.972-17.755-21.972 2.673 3.822 2.291 6.879 5.346 16.05 3.052 9.17 7.826 30.377 7.826 30.377z"/><path d="M431.454 121.016c8.145 6.624 19.344 18.086 19.344 18.086s-2.29-15.285-13.235-26.493c-10.944-11.21-24.018-15.74-27.233-17.578 0 0 12.98 19.361 21.124 25.985zM381.55 184.03l-5.191 3.422 5.538.866 6.052 6.699 3.389-2.185-4.065-8.32zM389.746 212.564l1.923.736 4.868-13.087-1.337-1.816-2.1 1.051-3.34 11.847zM340.89 190.372l-1.527-1.623-3.436 4.394.854 1.329zM376.062 180.151l.929-2.99-3.074.624-.869.246-.91 1.221 3.321 3.857 1.346-1.146zM314.356 250.176l.048-1.86-2.339 3.39.669 1.143z"/></g></g></svg>